GIL12_fast2_ik
nRows=3
nColumns=375

# SIMM Motion File Header:
name GIL12_fast2_ik
datacolumns 375
datarows 3
otherdata 1
range 0.09167000 0.10833000
endheader
time	pelvis_tx	pelvis_ty	pelvis_tz	pelvis_tilt	pelvis_list	pelvis_rotation	hip_flexion_r	hip_adduction_r	hip_rotation_r	knee_angle_r	ankle_angle_r	hip_flexion_l	hip_adduction_l	hip_rotation_l	knee_angle_l	ankle_angle_l	lumbar_extension	lumbar_bending	lumbar_rotation	subtalar_angle_r	mtp_angle_r	subtalar_angle_l	mtp_angle_l	asis_r_px	asis_r_py	asis_r_pz	asis_l_px	asis_l_py	asis_l_pz	midasis_px	midasis_py	midasis_pz	psis_r_px	psis_r_py	psis_r_pz	psis_l_px	psis_l_py	psis_l_pz	hip_r_px	hip_r_py	hip_r_pz	hip_l_px	hip_l_py	hip_l_pz	midhip_px	midhip_py	midhip_pz	epicondLat_r_px	epicondLat_r_py	epicondLat_r_pz	epicondMed_r_px	epicondMed_r_py	epicondMed_r_pz	thighwand_r_px	thighwand_r_py	thighwand_r_pz	upperleg1_r_px	upperleg1_r_py	upperleg1_r_pz	upperleg2_r_px	upperleg2_r_py	upperleg2_r_pz	malleolusLat_r_px	malleolusLat_r_py	malleolusLat_r_pz	malleolusMedv_r_px	malleolusMedv_r_py	malleolusMedv_r_pz	shankwand_r_px	shankwand_r_py	shankwand_r_pz	lowerleg1_r_px	lowerleg1_r_py	lowerleg1_r_pz	knee_r_px	knee_r_py	knee_r_pz	ankle_r_px	ankle_r_py	ankle_r_pz	toe_r_px	toe_r_py	toe_r_pz	epicondLat_l_px	epicondLat_l_py	epicondLat_l_pz	epicondMed_l_px	epicondMed_l_py	epicondMed_l_pz	thighwand_l_px	thighwand_l_py	thighwand_l_pz	upperleg1_l_px	upperleg1_l_py	upperleg1_l_pz	upperleg2_l_px	upperleg2_l_py	upperleg2_l_pz	malleolusLat_l_px	malleolusLat_l_py	malleolusLat_l_pz	malleolusMedv_l_px	malleolusMedv_l_py	malleolusMedv_l_pz	shankwand_l_px	shankwand_l_py	shankwand_l_pz	lowerleg1_l_px	lowerleg1_l_py	lowerleg1_l_pz	knee_l_px	knee_l_py	knee_l_pz	ankle_l_px	ankle_l_py	ankle_l_pz	toe_l_px	toe_l_py	toe_l_pz	subclavicle_r_px	subclavicle_r_py	subclavicle_r_pz	subclavicle_l_px	subclavicle_l_py	subclavicle_l_pz	neck_px	neck_py	neck_pz	sternalnotch_px	sternalnotch_py	sternalnotch_pz	xyphoidprocess_px	xyphoidprocess_py	xyphoidprocess_pz	midhip_tx	midhip_ty	midhip_tz	hip_r_tx	hip_r_ty	hip_r_tz	hip_l_tx	hip_l_ty	hip_l_tz	knee_r_tx	knee_r_ty	knee_r_tz	knee_l_tx	knee_l_ty	knee_l_tz	ankle_r_tx	ankle_r_ty	ankle_r_tz	ankle_l_tx	ankle_l_ty	ankle_l_tz	midasis_tx	midasis_ty	midasis_tz	asis_r_tx	asis_r_ty	asis_r_tz	asis_l_tx	asis_l_ty	asis_l_tz	psis_r_tx	psis_r_ty	psis_r_tz	psis_l_tx	psis_l_ty	psis_l_tz	epicondLat_r_tx	epicondLat_r_ty	epicondLat_r_tz	epicondLat_l_tx	epicondLat_l_ty	epicondLat_l_tz	epicondMed_r_tx	epicondMed_r_ty	epicondMed_r_tz	epicondMed_l_tx	epicondMed_l_ty	epicondMed_l_tz	malleolusLat_r_tx	malleolusLat_r_ty	malleolusLat_r_tz	malleolusLat_l_tx	malleolusLat_l_ty	malleolusLat_l_tz	malleolusMedv_r_tx	malleolusMedv_r_ty	malleolusMedv_r_tz	malleolusMedv_l_tx	malleolusMedv_l_ty	malleolusMedv_l_tz	neck_tx	neck_ty	neck_tz	subclavicle_r_tx	subclavicle_r_ty	subclavicle_r_tz	subclavicle_l_tx	subclavicle_l_ty	subclavicle_l_tz	sternalnotch_tx	sternalnotch_ty	sternalnotch_tz	xyphoidprocess_tx	xyphoidprocess_ty	xyphoidprocess_tz	thighwand_r_tx	thighwand_r_ty	thighwand_r_tz	thighwand_l_tx	thighwand_l_ty	thighwand_l_tz	upperleg1_r_tx	upperleg1_r_ty	upperleg1_r_tz	upperleg1_l_tx	upperleg1_l_ty	upperleg1_l_tz	upperleg2_r_tx	upperleg2_r_ty	upperleg2_r_tz	upperleg2_l_tx	upperleg2_l_ty	upperleg2_l_tz	shankwand_r_tx	shankwand_r_ty	shankwand_r_tz	shankwand_l_tx	shankwand_l_ty	shankwand_l_tz	lowerleg1_r_tx	lowerleg1_r_ty	lowerleg1_r_tz	lowerleg1_l_tx	lowerleg1_l_ty	lowerleg1_l_tz	toe_r_tx	toe_r_ty	toe_r_tz	toe_l_tx	toe_l_ty	toe_l_tz	ground_force_vx	ground_force_vy	ground_force_vz	ground_force_px	ground_force_py	ground_force_pz	ground_force_vx	ground_force_vy	ground_force_vz	ground_force_px	ground_force_py	ground_force_pz	ground_torque_x	ground_torque_y	ground_torque_z	ground_torque_x	ground_torque_y	ground_torque_z	ground_marker_px	ground_marker_py	ground_marker_pz	ground_marker_px	ground_marker_py	ground_marker_pz	ground_marker_px	ground_marker_py	ground_marker_pz	ground_marker_px	ground_marker_py	ground_marker_pz	ground_marker_px	ground_marker_py	ground_marker_pz	ground_marker_px	ground_marker_py	ground_marker_pz	ground_marker_px	ground_marker_py	ground_marker_pz	ground_marker_px	ground_marker_py	ground_marker_pz	ground_marker_px	ground_marker_py	ground_marker_pz	ground_marker_px	ground_marker_py	ground_marker_pz	ground_marker_px	ground_marker_py	ground_marker_pz	ground_marker_px	ground_marker_py	ground_marker_pz	ground_marker_px	ground_marker_py	ground_marker_pz	ground_marker_px	ground_marker_py	ground_marker_pz	ground_marker_px	ground_marker_py	ground_marker_pz	ground_marker_px	ground_marker_py	ground_marker_pz	ground_marker_px	ground_marker_py	ground_marker_pz	ground_marker_px	ground_marker_py	ground_marker_pz	ground_marker_px	ground_marker_py	ground_marker_pz	ground_marker_px	ground_marker_py	ground_marker_pz	ground_marker_px	ground_marker_py	ground_marker_pz	ground_marker_px	ground_marker_py	ground_marker_pz	ground_marker_px	ground_marker_py	ground_marker_pz	ground_marker_px	ground_marker_py	ground_marker_pz	ground_marker_px	ground_marker_py	ground_marker_pz	ground_marker_px	ground_marker_py	ground_marker_pz	ground_marker_px	ground_marker_py	ground_marker_pz	ground_marker_px	ground_marker_py	ground_marker_pz	ground_marker_px	ground_marker_py	ground_marker_pz	ground_marker_px	ground_marker_py	ground_marker_pz	ground_marker_px	ground_marker_py	ground_marker_pz	ground_marker_px	ground_marker_py	ground_marker_pz	ground_marker_px	ground_marker_py	ground_marker_pz	ground_marker_px	ground_marker_py	ground_marker_pz	ground_marker_px	ground_marker_py	ground_marker_pz	ground_marker_px	ground_marker_py	ground_marker_pz	ground_marker_px	ground_marker_py	ground_marker_pz
      0.09167000	      0.55540465	      0.65354219	     -0.26327303	      3.22162967	     -4.68063076	      5.93729170	     23.64411057	      6.86115027	      2.24537201	    -24.14220592	     -2.26031842	    -18.63063656	     -4.66837884	     -8.90070369	    -36.56780173	    -22.29605551	    -23.18848414	      8.77343880	    -10.05922172	      0.00000000	      0.00000000	      0.00000000	      0.00000000	      0.60027469	      0.65080375	     -0.18636954	      0.58478166	      0.63783686	     -0.35963793	      0.56489664	      0.65399570	     -0.26425797	      0.46858720	      0.70262318	     -0.22242500	      0.46055331	      0.69548993	     -0.30704962	      0.51562152	      0.61131497	     -0.19813181	      0.50437172	      0.60141750	     -0.31110470	      0.50999662	      0.60636623	     -0.25461826	      0.66764920	      0.33575606	     -0.18325183	      0.64937015	      0.33562281	     -0.27506793	      0.72634738	      0.46923219	     -0.25997256	      0.64596374	      0.48387398	     -0.19765003	      0.67318324	      0.40062200	     -0.20439585	      0.65704742	      0.04065714	     -0.18516620	      0.65963713	      0.03989429	     -0.24622195	      0.69042809	      0.12856715	     -0.12356208	      0.66923469	      0.18476781	     -0.18423630	      0.64780056	      0.33839640	     -0.22405472	      0.65831350	      0.04963729	     -0.22694328	      0.74873713	      0.02765836	     -0.22094362	      0.40886761	      0.30275070	     -0.35024680	      0.43833671	      0.29676827	     -0.26319070	      0.46900403	      0.35889544	     -0.42414958	      0.50646115	      0.41705949	     -0.34978722	      0.48684668	      0.33721944	     -0.32813746	      0.17719953	      0.13789695	     -0.28948019	      0.20273632	      0.11488018	     -0.23392199	      0.33597497	      0.11213125	     -0.28513622	      0.33837159	      0.19794200	     -0.29556682	      0.42252722	      0.30679548	     -0.30245739	      0.19839467	      0.13017916	     -0.25693860	      0.18969524	      0.03877786	     -0.28854214	      0.60499154	      0.94552603	     -0.20782531	      0.61506915	      0.94454151	     -0.29594556	      0.51862130	      0.98860556	     -0.25961093	      0.59233818	      0.95511288	     -0.24623816	      0.65991927	      0.83022036	     -0.24229959	      0.51257500	      0.59175600	     -0.24311900	      0.52566000	      0.60773900	     -0.19133700	      0.51107900	      0.59953200	     -0.30758400	      0.65102600	      0.34304500	     -0.22487900	      0.42816900	      0.30797900	     -0.29797500	      0.66156700	      0.05284800	     -0.22177500	      0.19630800	      0.13307400	     -0.27925700	      0.56404900	      0.66375000	     -0.25943400	      0.57496800	      0.66989600	     -0.17237800	      0.55313000	      0.65760400	     -0.34649000	      0.43218200	      0.69069600	     -0.20051900	      0.42592900	      0.68227500	     -0.28366600	      0.66076200	      0.34196100	     -0.17993400	      0.41590300	      0.30993900	     -0.34434000	      0.63773900	      0.34175800	     -0.26671600	      0.44271300	      0.30060400	     -0.25756700	      0.66307600	      0.05326100	     -0.18831100	      0.18634800	      0.14314600	     -0.30850800	      0.66010600	      0.05347500	     -0.24973700	      0.19437900	      0.13962300	     -0.24513100	      0.51412100	      1.00014200	     -0.25995700	      0.60368000	      0.93150800	     -0.20647000	      0.61015700	      0.92883700	     -0.29916600	      0.59161000	      0.94390700	     -0.24681100	      0.63311800	      0.80763300	     -0.24487400	      0.71748100	      0.47227000	     -0.26175900	      0.48745600	      0.37438900	     -0.41756300	      0.64868300	      0.49146800	     -0.19243900	      0.51858400	      0.42096700	     -0.33858600	      0.67272100	      0.40749300	     -0.20101600	      0.49586900	      0.34065700	     -0.31910700	      0.69807200	      0.14994400	     -0.12402600	      0.34487100	      0.12650900	     -0.27801400	      0.67769100	      0.19654300	     -0.18678600	      0.34175900	      0.20320200	     -0.29405100	      0.75067100	      0.04005300	     -0.22889400	      0.20681600	      0.05078700	     -0.26527900	    -53.66633929	    344.48336599	     -3.63342674	      0.66389612	      0.00000000	     -0.21405292	      0.00000000	      0.00000000	      0.00000000	      1.12917224	      0.00000000	     -0.37946564	      0.00000000	     -0.55034064	      0.00000000	      0.00000000	      0.00000000	      0.00000000	      0.51257497	      0.59175563	     -0.24311891	      0.52565956	      0.60773903	     -0.19133735	      0.51107925	      0.59953195	     -0.30758438	      0.65102631	      0.34304518	     -0.22487900	      0.42816910	      0.30797878	     -0.29797477	      0.66156721	      0.05284800	     -0.22177485	      0.19630767	      0.13307381	     -0.27925703	      0.56404930	      0.66374975	     -0.25943437	      0.57496834	      0.66989595	     -0.17237833	      0.55313027	      0.65760356	     -0.34649041	      0.43218198	      0.69069624	     -0.20051908	      0.42592853	      0.68227524	     -0.28366616	      0.66076231	      0.34196112	     -0.17993420	      0.41590303	      0.30993876	     -0.34433967	      0.63773948	      0.34175840	     -0.26671579	      0.44271311	      0.30060449	     -0.25756717	      0.66307646	      0.05326077	     -0.18831140	      0.18634829	      0.14314608	     -0.30850780	      0.66010571	      0.05347452	     -0.24973728	      0.19437866	      0.13962270	     -0.24513113	      0.51412112	      1.00014174	     -0.25995663	      0.60367972	      0.93150783	     -0.20646988	      0.61015749	      0.92883706	     -0.29916561	      0.59160990	      0.94390672	     -0.24681100	      0.63311833	      0.80763274	     -0.24487385	      0.71748143	      0.47226983	     -0.26175922	      0.48745567	      0.37438920	     -0.41756281	      0.64868349	      0.49146795	     -0.19243948	      0.51858360	      0.42096677	     -0.33858624	      0.67272121	      0.40749323	     -0.20101558	      0.49586877	      0.34065664	     -0.31910673	      0.69807160	      0.14994417	     -0.12402601	      0.34487125	      0.12650931	     -0.27801400	      0.67769092	      0.19654278	     -0.18678556	      0.34175855	      0.20320238	     -0.29405111	      0.75067079	      0.04005340	     -0.22889414	      0.20681565	      0.05078711	     -0.26527902
      0.10000000	      0.56771343	      0.65578694	     -0.26360527	      3.04615811	     -4.95610900	      5.79355437	     22.81831482	      7.21814087	      1.76631707	    -24.44490268	     -1.04306055	    -16.32748797	     -5.14910812	     -9.13948455	    -40.28462336	    -22.94207067	    -23.01107211	      9.13859204	     -9.78166936	      0.00000000	      0.00000000	      0.00000000	      0.00000000	      0.61236362	      0.65327986	     -0.18656606	      0.59731054	      0.63954842	     -0.35981432	      0.57720935	      0.65620884	     -0.26456605	      0.48092452	      0.70530491	     -0.22322667	      0.47310321	      0.69779959	     -0.30783902	      0.52763063	      0.61397764	     -0.19837824	      0.51666356	      0.60358495	     -0.31133446	      0.52214709	      0.60878130	     -0.25485635	      0.67436232	      0.33558853	     -0.18302056	      0.65690096	      0.33606910	     -0.27499451	      0.73621561	      0.46817426	     -0.25880062	      0.65556766	      0.48412723	     -0.19714496	      0.68129106	      0.40040255	     -0.20391125	      0.65678750	      0.04075701	     -0.18568412	      0.65989876	      0.04005402	     -0.24671623	      0.69170593	      0.12772366	     -0.12359539	      0.67239522	      0.18453407	     -0.18433013	      0.65497987	      0.33870881	     -0.22399785	      0.65863695	      0.04978747	     -0.22742859	      0.74891088	      0.02751173	     -0.22036383	      0.43194158	      0.30198667	     -0.35275493	      0.46185715	      0.29635059	     -0.26582808	      0.48979077	      0.36089191	     -0.42633405	      0.52532654	      0.41975371	     -0.35157878	      0.50868231	      0.33907646	     -0.33055445	      0.19608827	      0.14333876	     -0.28981098	      0.22127433	      0.11998945	     -0.23423143	      0.35413442	      0.11334232	     -0.28606776	      0.35878195	      0.19899122	     -0.29705384	      0.44579427	      0.30549857	     -0.30503957	      0.21723039	      0.13525635	     -0.25732346	      0.20498348	      0.04390186	     -0.28786906	      0.61742955	      0.94781126	     -0.20778607	      0.62752215	      0.94711759	     -0.29590738	      0.53106735	      0.99105991	     -0.25944399	      0.60478254	      0.95752455	     -0.24616924	      0.67236514	      0.83262086	     -0.24263119	      0.52471100	      0.59392800	     -0.24342000	      0.53762100	      0.61020200	     -0.19154300	      0.52323100	      0.60145600	     -0.30777500	      0.65823500	      0.34334400	     -0.22481700	      0.45090700	      0.30675600	     -0.30064400	      0.66189300	      0.05280700	     -0.22176400	      0.21538000	      0.13879400	     -0.27991900	      0.57628500	      0.66577100	     -0.25984700	      0.58708000	      0.67233200	     -0.17265500	      0.56549100	      0.65921000	     -0.34703900	      0.44481400	      0.69337400	     -0.20137500	      0.43842200	      0.68443300	     -0.28442200	      0.66760300	      0.34196500	     -0.17980200	      0.43842000	      0.30870000	     -0.34695000	      0.64345900	      0.34171800	     -0.26573100	      0.46693900	      0.29775300	     -0.26040400	      0.66336800	      0.05317800	     -0.18829800	      0.20525100	      0.14942100	     -0.30891400	      0.66023300	      0.05331800	     -0.24967400	      0.21355400	      0.14643900	     -0.24554700	      0.52648400	      1.00277200	     -0.25964500	      0.61631000	      0.93375400	     -0.20662500	      0.62254400	      0.93118700	     -0.29924800	      0.60413000	      0.94629500	     -0.24695700	      0.64545300	      0.80988000	     -0.24520500	      0.72773300	      0.47086100	     -0.26095900	      0.50729900	      0.37564800	     -0.42017800	      0.65927000	      0.49092000	     -0.19143800	      0.53774000	      0.42175800	     -0.34109800	      0.68027500	      0.40624500	     -0.19977800	      0.51788900	      0.33993200	     -0.32205700	      0.70055800	      0.14898200	     -0.12394700	      0.36336600	      0.12707800	     -0.28099200	      0.68123800	      0.19578000	     -0.18638000	      0.36196500	      0.20353200	     -0.29605300	      0.75072000	      0.03982900	     -0.22898000	      0.22275200	      0.05547800	     -0.26796900	    -50.47275427	    346.56577700	     -5.05552729	      0.66442316	      0.00000000	     -0.21396098	      0.00000000	      0.00000000	      0.00000000	      1.12967432	      0.00000000	     -0.37925668	      0.00000000	     -0.60034760	      0.00000000	      0.00000000	      0.00000000	      0.00000000	      0.52471066	      0.59392762	     -0.24342015	      0.53762066	      0.61020219	     -0.19154336	      0.52323133	      0.60145611	     -0.30777490	      0.65823483	      0.34334365	     -0.22481722	      0.45090708	      0.30675629	     -0.30064398	      0.66189331	      0.05280735	     -0.22176366	      0.21538042	      0.13879393	     -0.27991912	      0.57628536	      0.66577065	     -0.25984687	      0.58707970	      0.67233163	     -0.17265451	      0.56549108	      0.65920967	     -0.34703925	      0.44481385	      0.69337416	     -0.20137481	      0.43842205	      0.68443280	     -0.28442213	      0.66760272	      0.34196493	     -0.17980231	      0.43841973	      0.30870041	     -0.34695041	      0.64345944	      0.34171760	     -0.26573104	      0.46693933	      0.29775271	     -0.26040363	      0.66336751	      0.05317764	     -0.18829815	      0.20525075	      0.14942065	     -0.30891418	      0.66023320	      0.05331762	     -0.24967372	      0.21355376	      0.14643879	     -0.24554728	      0.52648360	      1.00277185	     -0.25964499	      0.61630970	      0.93375427	     -0.20662476	      0.62254393	      0.93118685	     -0.29924813	      0.60413015	      0.94629472	     -0.24695739	      0.64545310	      0.80988038	     -0.24520478	      0.72773284	      0.47086099	     -0.26095858	      0.50729859	      0.37564814	     -0.42017817	      0.65926981	      0.49092034	     -0.19143800	      0.53773981	      0.42175812	     -0.34109843	      0.68027532	      0.40624472	     -0.19977835	      0.51788932	      0.33993217	     -0.32205674	      0.70055765	      0.14898211	     -0.12394694	      0.36336622	      0.12707809	     -0.28099212	      0.68123806	      0.19577996	     -0.18638015	      0.36196452	      0.20353185	     -0.29605272	      0.75072008	      0.03982881	     -0.22897996	      0.22275157	      0.05547820	     -0.26796851
      0.10833000	      0.57985055	      0.65817171	     -0.26397889	      2.80138965	     -5.18046660	      5.62593559	     21.89865722	      7.44991421	      1.19899908	    -24.39572864	      0.03354534	    -13.85491530	     -5.54741562	     -9.32632955	    -43.87472410	    -22.47891173	    -22.76886063	      9.38447608	     -9.32305250	      0.00000000	      0.00000000	      0.00000000	      0.00000000	      0.62425109	      0.65577603	     -0.18679199	      0.60968049	      0.64145228	     -0.36003354	      0.58935102	      0.65855193	     -0.26491165	      0.49313652	      0.70818891	     -0.22405732	      0.48554765	      0.70039621	     -0.30866486	      0.53939786	      0.61676947	     -0.19872058	      0.52873960	      0.60599525	     -0.31167061	      0.53406873	      0.61138236	     -0.25519560	      0.67999167	      0.33528913	     -0.18232729	      0.66364320	      0.33635104	     -0.27450070	      0.74554610	      0.46670261	     -0.25703029	      0.66452508	      0.48422576	     -0.19629691	      0.68854384	      0.39998875	     -0.20296959	      0.65643725	      0.04089734	     -0.18598889	      0.66026228	      0.04027975	     -0.24698135	      0.69237733	      0.12698131	     -0.12325639	      0.67495563	      0.18432203	     -0.18406397	      0.66116211	      0.33891644	     -0.22352253	      0.65896888	      0.04998988	     -0.22768406	      0.74907933	      0.02750597	     -0.21931244	      0.45548068	      0.30171155	     -0.35525445	      0.48582506	      0.29654802	     -0.26844697	      0.51083943	      0.36335231	     -0.42850790	      0.54430476	      0.42294675	     -0.35337849	      0.53080948	      0.34153198	     -0.33294846	      0.21627185	      0.14841985	     -0.29016916	      0.24118226	      0.12486832	     -0.23455073	      0.37361121	      0.11485904	     -0.28694712	      0.38015258	      0.20030608	     -0.29852474	      0.46952480	      0.30475065	     -0.30761682	      0.23737763	      0.14007154	     -0.25772529	      0.22358584	      0.04882084	     -0.28792063	      0.62988532	      0.95033365	     -0.20814516	      0.63968926	      0.94994770	     -0.29630093	      0.54334324	      0.99373779	     -0.25936982	      0.61711011	      0.96017637	     -0.24645283	      0.68473588	      0.83527923	     -0.24356868	      0.53662700	      0.59625500	     -0.24384200	      0.54924100	      0.61280000	     -0.19187000	      0.53510400	      0.60361900	     -0.30809900	      0.66449700	      0.34345800	     -0.22429300	      0.47407700	      0.30624500	     -0.30337200	      0.66219900	      0.05279500	     -0.22162400	      0.23581500	      0.14430700	     -0.28047800	      0.58828700	      0.66793100	     -0.26031100	      0.59891500	      0.67483300	     -0.17293500	      0.57765900	      0.66102900	     -0.34768600	      0.45735100	      0.69635600	     -0.20210400	      0.45074400	      0.68686500	     -0.28505300	      0.67333900	      0.34181100	     -0.17918000	      0.46139000	      0.30811400	     -0.34962700	      0.64863900	      0.34149700	     -0.26388500	      0.49114800	      0.29609500	     -0.26322600	      0.66351000	      0.05309200	     -0.18815100	      0.22550600	      0.15541000	     -0.30923100	      0.66039200	      0.05333800	     -0.24945900	      0.23483600	      0.15210300	     -0.24597500	      0.53872400	      1.00563000	     -0.25950200	      0.62881200	      0.93623900	     -0.20703900	      0.63473600	      0.93396400	     -0.29971500	      0.61648900	      0.94891000	     -0.24733200	      0.65770500	      0.81246200	     -0.24612900	      0.73741500	      0.46899500	     -0.25955000	      0.52742000	      0.37748600	     -0.42282800	      0.66905500	      0.49047400	     -0.18991100	      0.55676000	      0.42351700	     -0.34355600	      0.68717500	      0.40473000	     -0.19782200	      0.53998200	      0.34029100	     -0.32485700	      0.70231100	      0.14803400	     -0.12351000	      0.38318700	      0.12812500	     -0.28379400	      0.68421100	      0.19518500	     -0.18568200	      0.38345300	      0.20484700	     -0.29788200	      0.75069700	      0.03971900	     -0.22893600	      0.24149300	      0.06034200	     -0.27150800	    -46.21869190	    344.32946143	     -7.08467442	      0.66510822	      0.00000000	     -0.21372513	      0.00000000	      0.00000000	      0.00000000	      1.13016602	      0.00000000	     -0.37898145	      0.00000000	     -0.60855243	      0.00000000	      0.00000000	      0.00000000	      0.00000000	      0.53662705	      0.59625494	     -0.24384174	      0.54924148	      0.61279988	     -0.19186972	      0.53510398	      0.60361904	     -0.30809867	      0.66449702	      0.34345785	     -0.22429264	      0.47407714	      0.30624536	     -0.30337152	      0.66219908	      0.05279474	     -0.22162442	      0.23581457	      0.14430711	     -0.28047809	      0.58828712	      0.66793108	     -0.26031065	      0.59891504	      0.67483282	     -0.17293492	      0.57765925	      0.66102940	     -0.34768638	      0.45735130	      0.69635558	     -0.20210420	      0.45074385	      0.68686521	     -0.28505346	      0.67333883	      0.34181085	     -0.17918043	      0.46138981	      0.30811378	     -0.34962669	      0.64863902	      0.34149739	     -0.26388541	      0.49114808	      0.29609504	     -0.26322591	      0.66351026	      0.05309165	     -0.18815142	      0.22550595	      0.15540956	     -0.30923080	      0.66039234	      0.05333838	     -0.24945909	      0.23483564	      0.15210319	     -0.24597470	      0.53872353	      1.00563025	     -0.25950211	      0.62881213	      0.93623865	     -0.20703940	      0.63473594	      0.93396413	     -0.29971546	      0.61648864	      0.94890994	     -0.24733204	      0.65770537	      0.81246156	     -0.24612893	      0.73741549	      0.46899521	     -0.25954977	      0.52742040	      0.37748587	     -0.42282814	      0.66905540	      0.49047405	     -0.18991090	      0.55676031	      0.42351690	     -0.34355637	      0.68717504	      0.40473020	     -0.19782199	      0.53998232	      0.34029058	     -0.32485670	      0.70231110	      0.14803444	     -0.12350997	      0.38318694	      0.12812491	     -0.28379387	      0.68421143	      0.19518489	     -0.18568176	      0.38345289	      0.20484664	     -0.29788223	      0.75069726	      0.03971905	     -0.22893590	      0.24149343	      0.06034212	     -0.27150798
